# Blender v2.79 (sub 0) OBJ File: 'Sepultura.blend'
# www.blender.org
mtllib Sepultura.mtl
o Plano
v -7.115296 -0.334783 5.638612
v 6.729362 -0.334783 5.638612
v -7.115296 -0.334783 -8.206046
v 6.729362 -0.334783 -8.206046
vn 0.0000 1.0000 0.0000
usemtl Materiais
s off
f 1//1 2//1 4//1 3//1
o Sepultura_Cube
v 0.928272 -0.313502 -1.881845
v 2.093444 -0.313502 0.143247
v -0.928272 -0.313502 1.881845
v -2.093444 -0.313502 -0.143248
v 0.928273 0.313502 -1.881845
v 2.093444 0.313502 0.143248
v -0.928273 0.313502 1.881845
v -2.093444 0.313502 -0.143247
v 0.847973 0.313502 -1.642657
v 1.846301 0.313502 0.092461
v -1.846301 0.313502 -0.092460
v -0.847972 0.313502 1.642657
v 0.847973 0.633225 -1.642657
v 1.846301 0.633225 0.092461
v -1.846301 0.633225 -0.092460
v -0.847972 0.633225 1.642657
v 0.845357 0.633225 -0.890822
v 1.195000 0.633225 -0.283132
v -1.195001 0.633225 0.283133
v -0.845356 0.633225 0.890823
v 0.845357 3.654749 -0.890822
v 1.195000 3.654749 -0.283132
v -1.195001 3.654749 0.283133
v -0.845356 3.654749 0.890823
v -0.174822 4.189704 -0.303845
v 0.174822 4.189704 0.303845
vt 0.561466 0.890093
vt 0.280733 0.890093
vt 0.280733 0.449488
vt 0.561466 0.449488
vt 0.280733 0.890093
vt 0.000000 0.890093
vt 0.020099 0.866220
vt 0.260634 0.866220
vt 0.960202 0.295284
vt 0.884862 0.295284
vt 0.884862 0.000000
vt 0.960202 0.000000
vt 0.716377 0.440604
vt 0.641038 0.440604
vt 0.641038 0.000000
vt 0.716377 0.000000
vt 0.961583 0.744772
vt 0.886243 0.744772
vt 0.886243 0.449488
vt 0.961583 0.449488
vt 0.565698 0.000000
vt 0.641038 0.000000
vt 0.641038 0.440604
vt 0.565699 0.440604
vt 0.840418 0.746998
vt 0.840418 1.000000
vt 0.802001 1.000000
vt 0.802001 0.746998
vt 0.280733 0.449488
vt 0.260634 0.473361
vt 0.000000 0.449489
vt 0.020099 0.473361
vt 0.561466 0.842347
vt 0.561466 0.449489
vt 0.639612 0.497163
vt 0.639612 0.794673
vt 0.960202 0.392859
vt 0.960202 0.000000
vt 0.998619 0.000000
vt 0.998619 0.392859
vt 0.961583 0.842347
vt 0.961583 0.449488
vt 1.000000 0.449488
vt 1.000000 0.842347
vt 0.924661 0.744772
vt 0.924661 0.997774
vt 0.886243 0.997774
vt 0.886243 0.744772
vt 0.800620 0.000000
vt 0.884862 0.000000
vt 0.884862 0.381878
vt 0.800620 0.381878
vt 0.802001 0.449488
vt 0.723855 0.497163
vt 0.802001 0.842347
vt 0.723855 0.794673
vt 0.282849 0.449488
vt 0.000000 0.449488
vt 0.000000 0.067611
vt 0.141425 0.000000
vt 0.282849 0.067611
vt 0.282849 0.000000
vt 0.565698 0.000000
vt 0.565698 0.381878
vt 0.424274 0.449488
vt 0.282849 0.381878
vt 0.716377 0.000000
vt 0.800620 0.000000
vt 0.800620 0.381878
vt 0.716377 0.381878
vt 0.886243 0.598243
vt 0.886243 0.746998
vt 0.802001 0.746998
vt 0.802001 0.598243
vt 0.886243 0.449488
vt 0.802001 0.449489
vn 0.0000 -1.0000 0.0000
vn 0.0000 1.0000 0.0000
vn 0.8668 0.0000 -0.4987
vn 0.4987 -0.0000 0.8668
vn -0.8668 -0.0000 0.4987
vn -0.4987 0.0000 -0.8668
vn -0.3586 0.9104 0.2064
vn 0.3586 0.9104 -0.2064
usemtl Textura
s off
f 5/1/2 6/2/2 7/3/2 8/4/2
f 12/5/3 11/6/3 16/7/3 15/8/3
f 5/9/4 9/10/4 10/11/4 6/12/4
f 6/13/5 10/14/5 11/15/5 7/16/5
f 7/17/6 11/18/6 12/19/6 8/20/6
f 9/21/7 5/22/7 8/23/7 12/24/7
f 15/25/6 16/26/6 20/27/6 19/28/6
f 9/29/3 12/5/3 15/8/3 13/30/3
f 11/6/3 10/31/3 14/32/3 16/7/3
f 10/31/3 9/29/3 13/30/3 14/32/3
f 20/33/3 18/34/3 22/35/3 24/36/3
f 13/37/7 15/38/7 19/39/7 17/40/7
f 16/41/5 14/42/5 18/43/5 20/44/5
f 14/45/4 13/46/4 17/47/4 18/48/4
f 23/49/6 24/50/6 28/51/6 27/52/6
f 18/34/3 17/53/3 21/54/3 22/35/3
f 19/55/3 20/33/3 24/36/3 23/56/3
f 17/53/3 19/55/3 23/56/3 21/54/3
f 21/57/7 23/58/7 27/59/7 29/60/7 25/61/7
f 24/62/5 22/63/5 26/64/5 30/65/5 28/66/5
f 22/67/4 21/68/4 25/69/4 26/70/4
f 29/71/8 27/72/8 28/73/8 30/74/8
f 25/75/9 29/71/9 30/74/9 26/76/9
